<?xml version="1.0" standalone="no"?>
<!DOCTYPE svg PUBLIC "-//W3C//DTD SVG 20010904//EN"
 "http://www.w3.org/TR/2001/REC-SVG-20010904/DTD/svg10.dtd">
<svg version="1.0" xmlns="http://www.w3.org/2000/svg"
 width="66.000000pt" height="64.000000pt" viewBox="0 0 66.000000 64.000000"
 preserveAspectRatio="xMidYMid meet">

<g transform="translate(0.000000,64.000000) scale(0.100000,-0.100000)"
fill="#000000" stroke="none">
<path d="M261 612 c-14 -27 8 -55 40 -50 19 2 24 9 24 33 0 25 -4 31 -27 33
-18 2 -30 -3 -37 -16z m49 -17 c0 -8 -6 -15 -14 -15 -17 0 -28 14 -19 24 12
12 33 6 33 -9z"/>
<path d="M356 585 c-15 -25 -26 -48 -23 -51 5 -5 67 79 67 90 0 17 -18 1 -44
-39z"/>
<path d="M366 531 c-3 -4 8 -8 24 -7 17 1 30 4 30 9 0 10 -48 9 -54 -2z"/>
<path d="M366 494 l31 -16 -25 -64 -25 -63 -56 -7 c-31 -4 -65 -10 -76 -14
-19 -7 -19 -7 3 -19 19 -10 22 -20 22 -66 0 -55 -15 -83 -23 -43 -4 20 -4 20
-6 -4 -1 -18 -5 -26 -14 -22 -8 3 -14 -2 -14 -10 0 -8 3 -13 7 -11 4 2 16 -3
26 -11 10 -9 13 -12 5 -8 -10 5 -12 3 -6 -5 4 -8 21 -11 44 -8 58 7 255 60
263 71 4 5 14 44 24 85 9 42 24 84 32 93 7 9 11 22 7 27 -7 13 -32 14 -37 2
-1 -4 -20 -11 -42 -15 l-39 -7 22 27 c20 25 20 28 5 46 -10 10 -24 18 -32 18
-12 0 -12 -4 3 -20 16 -18 16 -20 2 -20 -10 0 -17 6 -17 14 0 27 -35 55 -75
61 l-40 5 31 -16z m58 -39 c3 -8 1 -15 -4 -15 -6 0 -10 7 -10 15 0 8 2 15 4
15 2 0 6 -7 10 -15z m3 -76 c10 0 3 -5 -16 -10 -41 -12 -45 -9 -30 27 11 29
11 29 20 7 4 -13 16 -23 26 -24z m18 -48 c-6 -5 -26 -14 -46 -19 -33 -9 -36
-8 -32 9 4 15 15 19 46 19 25 0 37 -4 32 -9z m-115 -26 c0 -8 -7 -15 -15 -15
-8 0 -15 -9 -15 -19 0 -27 -15 -34 -34 -16 -15 16 -11 44 8 57 20 14 56 9 56
-7z m130 -30 c0 -41 -111 -62 -118 -22 -3 15 2 17 35 11 29 -4 42 -2 52 10 17
20 31 21 31 1z"/>
<path d="M315 460 c-11 -5 -14 -9 -7 -9 7 -1 20 -8 28 -16 22 -22 34 -18 34
10 0 27 -17 31 -55 15z"/>
<path d="M85 410 c-3 -5 -4 -10 -1 -10 2 0 12 -3 20 -6 12 -5 15 -2 10 10 -7
18 -20 21 -29 6z"/>
<path d="M190 356 c0 -2 7 -6 15 -10 8 -3 15 -1 15 4 0 6 -7 10 -15 10 -8 0
-15 -2 -15 -4z"/>
</g>
</svg>
